<svg xmlns="http://www.w3.org/2000/svg" xmlns:xlink="http://www.w3.org/1999/xlink" width="1080" zoomAndPan="magnify" viewBox="0 0 810 809.999993" height="1080" preserveAspectRatio="xMidYMid meet" version="1.2"><defs><linearGradient x1="330.819" gradientTransform="matrix(1,0,0,1,0.0000108761,-0.0000133126)" y1="0.0000133126" x2="330.819" gradientUnits="userSpaceOnUse" y2="717.351733" id="f052bdd331"><stop style="stop-color:#000000;stop-opacity:1;" offset="0"/><stop style="stop-color:#000000;stop-opacity:1;" offset="0.0078125"/><stop style="stop-color:#010101;stop-opacity:1;" offset="0.015625"/><stop style="stop-color:#010101;stop-opacity:1;" offset="0.0234375"/><stop style="stop-color:#020202;stop-opacity:1;" offset="0.03125"/><stop style="stop-color:#020202;stop-opacity:1;" offset="0.0390625"/><stop style="stop-color:#030303;stop-opacity:1;" offset="0.046875"/><stop style="stop-color:#030303;stop-opacity:1;" offset="0.0546875"/><stop style="stop-color:#040404;stop-opacity:1;" offset="0.0625"/><stop style="stop-color:#050505;stop-opacity:1;" offset="0.0703125"/><stop style="stop-color:#050505;stop-opacity:1;" offset="0.078125"/><stop style="stop-color:#060606;stop-opacity:1;" offset="0.0859375"/><stop style="stop-color:#060606;stop-opacity:1;" offset="0.09375"/><stop style="stop-color:#070707;stop-opacity:1;" offset="0.101562"/><stop style="stop-color:#070707;stop-opacity:1;" offset="0.109375"/><stop style="stop-color:#080808;stop-opacity:1;" offset="0.117187"/><stop style="stop-color:#080808;stop-opacity:1;" offset="0.125"/><stop style="stop-color:#090909;stop-opacity:1;" offset="0.132812"/><stop style="stop-color:#090909;stop-opacity:1;" offset="0.140625"/><stop style="stop-color:#0a0a0a;stop-opacity:1;" offset="0.148438"/><stop style="stop-color:#0a0a0a;stop-opacity:1;" offset="0.15625"/><stop style="stop-color:#0b0b0b;stop-opacity:1;" offset="0.164062"/><stop style="stop-color:#0b0b0b;stop-opacity:1;" offset="0.171875"/><stop style="stop-color:#0c0c0c;stop-opacity:1;" offset="0.179687"/><stop style="stop-color:#0c0c0c;stop-opacity:1;" offset="0.1875"/><stop style="stop-color:#0d0d0d;stop-opacity:1;" offset="0.195312"/><stop style="stop-color:#0e0e0e;stop-opacity:1;" offset="0.203125"/><stop style="stop-color:#0e0e0e;stop-opacity:1;" offset="0.210937"/><stop style="stop-color:#0f0f0f;stop-opacity:1;" offset="0.21875"/><stop style="stop-color:#0f0f0f;stop-opacity:1;" offset="0.226562"/><stop style="stop-color:#101010;stop-opacity:1;" offset="0.234375"/><stop style="stop-color:#101010;stop-opacity:1;" offset="0.242187"/><stop style="stop-color:#111111;stop-opacity:1;" offset="0.25"/><stop style="stop-color:#111111;stop-opacity:1;" offset="0.257812"/><stop style="stop-color:#121212;stop-opacity:1;" offset="0.265625"/><stop style="stop-color:#121212;stop-opacity:1;" offset="0.273438"/><stop style="stop-color:#131313;stop-opacity:1;" offset="0.28125"/><stop style="stop-color:#131313;stop-opacity:1;" offset="0.289063"/><stop style="stop-color:#141414;stop-opacity:1;" offset="0.296875"/><stop style="stop-color:#141414;stop-opacity:1;" offset="0.304687"/><stop style="stop-color:#151515;stop-opacity:1;" offset="0.3125"/><stop style="stop-color:#161616;stop-opacity:1;" offset="0.320312"/><stop style="stop-color:#161616;stop-opacity:1;" offset="0.328125"/><stop style="stop-color:#171717;stop-opacity:1;" offset="0.335938"/><stop style="stop-color:#171717;stop-opacity:1;" offset="0.34375"/><stop style="stop-color:#181818;stop-opacity:1;" offset="0.351562"/><stop style="stop-color:#181818;stop-opacity:1;" offset="0.359375"/><stop style="stop-color:#191919;stop-opacity:1;" offset="0.367188"/><stop style="stop-color:#191919;stop-opacity:1;" offset="0.375"/><stop style="stop-color:#1a1a1a;stop-opacity:1;" offset="0.382812"/><stop style="stop-color:#1a1a1a;stop-opacity:1;" offset="0.390625"/><stop style="stop-color:#1b1b1b;stop-opacity:1;" offset="0.398438"/><stop style="stop-color:#1b1b1b;stop-opacity:1;" offset="0.40625"/><stop style="stop-color:#1c1c1c;stop-opacity:1;" offset="0.414062"/><stop style="stop-color:#1c1c1c;stop-opacity:1;" offset="0.421875"/><stop style="stop-color:#1d1d1d;stop-opacity:1;" offset="0.429688"/><stop style="stop-color:#1d1d1d;stop-opacity:1;" offset="0.4375"/><stop style="stop-color:#1e1e1e;stop-opacity:1;" offset="0.445312"/><stop style="stop-color:#1f1f1f;stop-opacity:1;" offset="0.453125"/><stop style="stop-color:#1f1f1f;stop-opacity:1;" offset="0.460938"/><stop style="stop-color:#202020;stop-opacity:1;" offset="0.46875"/><stop style="stop-color:#202020;stop-opacity:1;" offset="0.476562"/><stop style="stop-color:#212121;stop-opacity:1;" offset="0.484375"/><stop style="stop-color:#212121;stop-opacity:1;" offset="0.492188"/><stop style="stop-color:#222222;stop-opacity:1;" offset="0.5"/><stop style="stop-color:#222222;stop-opacity:1;" offset="0.507812"/><stop style="stop-color:#232323;stop-opacity:1;" offset="0.515625"/><stop style="stop-color:#232323;stop-opacity:1;" offset="0.523438"/><stop style="stop-color:#242424;stop-opacity:1;" offset="0.53125"/><stop style="stop-color:#242424;stop-opacity:1;" offset="0.539062"/><stop style="stop-color:#252525;stop-opacity:1;" offset="0.546875"/><stop style="stop-color:#252525;stop-opacity:1;" offset="0.554687"/><stop style="stop-color:#262626;stop-opacity:1;" offset="0.5625"/><stop style="stop-color:#272727;stop-opacity:1;" offset="0.570313"/><stop style="stop-color:#272727;stop-opacity:1;" offset="0.578125"/><stop style="stop-color:#282828;stop-opacity:1;" offset="0.585938"/><stop style="stop-color:#282828;stop-opacity:1;" offset="0.59375"/><stop style="stop-color:#292929;stop-opacity:1;" offset="0.601562"/><stop style="stop-color:#292929;stop-opacity:1;" offset="0.609375"/><stop style="stop-color:#2a2a2a;stop-opacity:1;" offset="0.617187"/><stop style="stop-color:#2a2a2a;stop-opacity:1;" offset="0.625"/><stop style="stop-color:#2b2b2b;stop-opacity:1;" offset="0.632813"/><stop style="stop-color:#2b2b2b;stop-opacity:1;" offset="0.640625"/><stop style="stop-color:#2c2c2c;stop-opacity:1;" offset="0.648438"/><stop style="stop-color:#2c2c2c;stop-opacity:1;" offset="0.65625"/><stop style="stop-color:#2d2d2d;stop-opacity:1;" offset="0.664062"/><stop style="stop-color:#2d2d2d;stop-opacity:1;" offset="0.671875"/><stop style="stop-color:#2e2e2e;stop-opacity:1;" offset="0.679688"/><stop style="stop-color:#2e2e2e;stop-opacity:1;" offset="0.6875"/><stop style="stop-color:#2f2f2f;stop-opacity:1;" offset="0.695312"/><stop style="stop-color:#303030;stop-opacity:1;" offset="0.703125"/><stop style="stop-color:#303030;stop-opacity:1;" offset="0.710938"/><stop style="stop-color:#313131;stop-opacity:1;" offset="0.71875"/><stop style="stop-color:#313131;stop-opacity:1;" offset="0.726563"/><stop style="stop-color:#323232;stop-opacity:1;" offset="0.734375"/><stop style="stop-color:#323232;stop-opacity:1;" offset="0.742188"/><stop style="stop-color:#333333;stop-opacity:1;" offset="0.75"/><stop style="stop-color:#333333;stop-opacity:1;" offset="0.757812"/><stop style="stop-color:#343434;stop-opacity:1;" offset="0.765625"/><stop style="stop-color:#343434;stop-opacity:1;" offset="0.773437"/><stop style="stop-color:#353535;stop-opacity:1;" offset="0.78125"/><stop style="stop-color:#353535;stop-opacity:1;" offset="0.789063"/><stop style="stop-color:#363636;stop-opacity:1;" offset="0.796875"/><stop style="stop-color:#363636;stop-opacity:1;" offset="0.804688"/><stop style="stop-color:#373737;stop-opacity:1;" offset="0.8125"/><stop style="stop-color:#383838;stop-opacity:1;" offset="0.820312"/><stop style="stop-color:#383838;stop-opacity:1;" offset="0.828125"/><stop style="stop-color:#393939;stop-opacity:1;" offset="0.835937"/><stop style="stop-color:#393939;stop-opacity:1;" offset="0.84375"/><stop style="stop-color:#3a3a3a;stop-opacity:1;" offset="0.851562"/><stop style="stop-color:#3a3a3a;stop-opacity:1;" offset="0.859375"/><stop style="stop-color:#3b3b3b;stop-opacity:1;" offset="0.867188"/><stop style="stop-color:#3b3b3b;stop-opacity:1;" offset="0.875"/><stop style="stop-color:#3c3c3c;stop-opacity:1;" offset="0.882812"/><stop style="stop-color:#3c3c3c;stop-opacity:1;" offset="0.890625"/><stop style="stop-color:#3d3d3d;stop-opacity:1;" offset="0.898437"/><stop style="stop-color:#3d3d3d;stop-opacity:1;" offset="0.90625"/><stop style="stop-color:#3e3e3e;stop-opacity:1;" offset="0.914062"/><stop style="stop-color:#3e3e3e;stop-opacity:1;" offset="0.921875"/><stop style="stop-color:#3f3f3f;stop-opacity:1;" offset="0.929688"/><stop style="stop-color:#3f3f3f;stop-opacity:1;" offset="0.9375"/><stop style="stop-color:#404040;stop-opacity:1;" offset="0.945312"/><stop style="stop-color:#414141;stop-opacity:1;" offset="0.953125"/><stop style="stop-color:#414141;stop-opacity:1;" offset="0.960938"/><stop style="stop-color:#424242;stop-opacity:1;" offset="0.96875"/><stop style="stop-color:#424242;stop-opacity:1;" offset="0.976562"/><stop style="stop-color:#434343;stop-opacity:1;" offset="0.984375"/><stop style="stop-color:#434343;stop-opacity:1;" offset="0.992187"/><stop style="stop-color:#444444;stop-opacity:1;" offset="1"/></linearGradient><clipPath id="0472291752"><path d="M 330.003906 16.773438 L 697.503906 16.773438 L 697.503906 104 L 330.003906 104 Z M 330.003906 16.773438 "/></clipPath><clipPath id="d5280f41bb"><path d="M 330.007812 67.785156 L 697.503906 67.785156 L 697.503906 321.921875 L 330.007812 321.921875 Z M 330.007812 67.785156 "/></clipPath><clipPath id="6b502cd899"><path d="M 103.972656 531.691406 L 476.644531 531.691406 L 476.644531 771.402344 L 103.972656 771.402344 Z M 103.972656 531.691406 "/></clipPath><clipPath id="fafaa2d777"><path d="M 145.222656 531.691406 L 434.816406 531.691406 C 445.757812 531.691406 456.25 536.035156 463.984375 543.773438 C 471.722656 551.507812 476.066406 562 476.066406 572.941406 L 476.066406 730.152344 C 476.066406 741.089844 471.722656 751.582031 463.984375 759.320312 C 456.25 767.054688 445.757812 771.402344 434.816406 771.402344 L 145.222656 771.402344 C 134.28125 771.402344 123.789062 767.054688 116.054688 759.320312 C 108.316406 751.582031 103.972656 741.089844 103.972656 730.152344 L 103.972656 572.941406 C 103.972656 562 108.316406 551.507812 116.054688 543.773438 C 123.789062 536.035156 134.28125 531.691406 145.222656 531.691406 Z M 145.222656 531.691406 "/></clipPath><clipPath id="2aa927f46d"><path d="M 0.972656 0.691406 L 373 0.691406 L 373 240.402344 L 0.972656 240.402344 Z M 0.972656 0.691406 "/></clipPath><clipPath id="d6bc7fc04f"><path d="M 42.222656 0.691406 L 331.816406 0.691406 C 342.757812 0.691406 353.25 5.035156 360.984375 12.773438 C 368.722656 20.507812 373.066406 31 373.066406 41.941406 L 373.066406 199.152344 C 373.066406 210.089844 368.722656 220.582031 360.984375 228.320312 C 353.25 236.054688 342.757812 240.402344 331.816406 240.402344 L 42.222656 240.402344 C 31.28125 240.402344 20.789062 236.054688 13.054688 228.320312 C 5.316406 220.582031 0.972656 210.089844 0.972656 199.152344 L 0.972656 41.941406 C 0.972656 31 5.316406 20.507812 13.054688 12.773438 C 20.789062 5.035156 31.28125 0.691406 42.222656 0.691406 Z M 42.222656 0.691406 "/></clipPath><clipPath id="dfe20bd1b7"><rect x="0" width="374" y="0" height="241"/></clipPath><clipPath id="dce973ffc3"><path d="M 103.972656 531.691406 L 475.972656 531.691406 L 475.972656 771.691406 L 103.972656 771.691406 Z M 103.972656 531.691406 "/></clipPath><clipPath id="d6e379bd8f"><path d="M 145.222656 531.691406 L 434.816406 531.691406 C 445.753906 531.691406 456.246094 536.035156 463.984375 543.773438 C 471.71875 551.507812 476.066406 562 476.066406 572.941406 L 476.066406 730.148438 C 476.066406 741.089844 471.71875 751.582031 463.984375 759.316406 C 456.246094 767.050781 445.753906 771.398438 434.816406 771.398438 L 145.222656 771.398438 C 134.28125 771.398438 123.792969 767.050781 116.054688 759.316406 C 108.320312 751.582031 103.972656 741.089844 103.972656 730.148438 L 103.972656 572.941406 C 103.972656 562 108.320312 551.507812 116.054688 543.773438 C 123.792969 536.035156 134.28125 531.691406 145.222656 531.691406 Z M 145.222656 531.691406 "/></clipPath></defs><g id="4a93cefa6b"><path style="fill:none;stroke-width:80;stroke-linecap:butt;stroke-linejoin:miter;stroke:url(#f052bdd331);stroke-miterlimit:4;" d="M 330.174259 613.305666 L 330.174259 653.352543 C 330.174259 666.607752 340.919052 677.352544 354.174261 677.352544 L 597.637814 677.352544 C 610.893023 677.352544 621.637816 666.607752 621.637816 653.352543 L 621.637816 379.540029 C 621.637816 366.28482 610.893023 355.540028 597.637814 355.540028 L 64.002371 355.540028 C 50.747162 355.540028 40.00237 344.795236 40.00237 331.540027 L 40.00237 63.998347 C 40.00237 50.743138 50.747162 39.998345 64.002371 39.998345 L 309.945092 39.998345 " transform="matrix(0.75,0,0,0.75,157.369318,153.973899)"/><g clip-rule="nonzero" clip-path="url(#0472291752)"><path style=" stroke:none;fill-rule:nonzero;fill:#000000;fill-opacity:1;" d="M 330.007812 103.480469 L 330.007812 49.855469 C 330.007812 31.585938 344.816406 16.773438 363.089844 16.773438 L 434.164062 16.773438 C 441.167969 16.773438 447.992188 18.996094 453.652344 23.121094 L 484.597656 45.675781 L 664.582031 45.675781 C 682.851562 45.675781 697.664062 60.488281 697.664062 78.761719 L 697.664062 103.480469 L 330.007812 103.480469 "/></g><g clip-rule="nonzero" clip-path="url(#d5280f41bb)"><path style=" stroke:none;fill-rule:nonzero;fill:#000000;fill-opacity:1;" d="M 664.582031 67.855469 L 363.089844 67.855469 C 344.816406 67.855469 330.007812 82.667969 330.007812 100.941406 L 330.007812 288.839844 C 330.007812 307.113281 344.816406 321.921875 363.089844 321.921875 L 664.582031 321.921875 C 682.851562 321.921875 697.664062 307.113281 697.664062 288.839844 L 697.664062 100.941406 C 697.664062 82.667969 682.851562 67.855469 664.582031 67.855469 "/></g><g clip-rule="nonzero" clip-path="url(#6b502cd899)"><g clip-rule="nonzero" clip-path="url(#fafaa2d777)"><g transform="matrix(1,0,0,1,103,531)"><g clip-path="url(#dfe20bd1b7)"><g clip-rule="nonzero" clip-path="url(#2aa927f46d)"><g clip-rule="nonzero" clip-path="url(#d6bc7fc04f)"><path style=" stroke:none;fill-rule:nonzero;fill:#444444;fill-opacity:1;" d="M 0.972656 0.691406 L 372.710938 0.691406 L 372.710938 240.402344 L 0.972656 240.402344 Z M 0.972656 0.691406 "/></g></g></g></g></g></g><g clip-rule="nonzero" clip-path="url(#dce973ffc3)"><g clip-rule="nonzero" clip-path="url(#d6e379bd8f)"><path style="fill:none;stroke-width:80;stroke-linecap:butt;stroke-linejoin:miter;stroke:#444444;stroke-opacity:1;stroke-miterlimit:4;" d="M 54.998815 0.000411998 L 441.123809 0.000411998 C 455.707143 0.000411998 469.696726 5.792079 480.014434 16.109787 C 490.326934 26.422287 496.123809 40.41187 496.123809 55.000411 L 496.123809 264.609783 C 496.123809 279.198325 490.326934 293.187908 480.014434 303.500408 C 469.696726 313.812908 455.707143 319.609783 441.123809 319.609783 L 54.998815 319.609783 C 40.410273 319.609783 26.425898 313.812908 16.10819 303.500408 C 5.79569 293.187908 -0.00118456 279.198325 -0.00118456 264.609783 L -0.00118456 55.000411 C -0.00118456 40.41187 5.79569 26.422287 16.10819 16.109787 C 26.425898 5.792079 40.410273 0.000411998 54.998815 0.000411998 Z M 54.998815 0.000411998 " transform="matrix(0.75,0,0,0.75,103.973545,531.691097)"/></g></g></g></svg>