<svg xmlns="http://www.w3.org/2000/svg" xmlns:xlink="http://www.w3.org/1999/xlink" width="1080" zoomAndPan="magnify" viewBox="0 0 810 809.999993" height="1080" preserveAspectRatio="xMidYMid meet" version="1.2"><defs><linearGradient x1="330.819" gradientTransform="matrix(1,0,0,1,0.0000108761,-0.0000165126)" y1="0.0000165126" x2="330.819" gradientUnits="userSpaceOnUse" y2="717.351737" id="414ba944a1"><stop style="stop-color:#ffffff;stop-opacity:1;" offset="0"/><stop style="stop-color:#ffffff;stop-opacity:1;" offset="0.015625"/><stop style="stop-color:#fefefe;stop-opacity:1;" offset="0.03125"/><stop style="stop-color:#fefefe;stop-opacity:1;" offset="0.046875"/><stop style="stop-color:#fdfdfd;stop-opacity:1;" offset="0.0625"/><stop style="stop-color:#fdfdfd;stop-opacity:1;" offset="0.078125"/><stop style="stop-color:#fcfcfc;stop-opacity:1;" offset="0.09375"/><stop style="stop-color:#fcfcfc;stop-opacity:1;" offset="0.109375"/><stop style="stop-color:#fbfbfb;stop-opacity:1;" offset="0.125"/><stop style="stop-color:#fafafa;stop-opacity:1;" offset="0.140625"/><stop style="stop-color:#fafafa;stop-opacity:1;" offset="0.15625"/><stop style="stop-color:#f9f9f9;stop-opacity:1;" offset="0.171875"/><stop style="stop-color:#f9f9f9;stop-opacity:1;" offset="0.1875"/><stop style="stop-color:#f8f8f8;stop-opacity:1;" offset="0.203125"/><stop style="stop-color:#f8f8f8;stop-opacity:1;" offset="0.21875"/><stop style="stop-color:#f7f7f7;stop-opacity:1;" offset="0.234375"/><stop style="stop-color:#f7f7f7;stop-opacity:1;" offset="0.25"/><stop style="stop-color:#f6f6f6;stop-opacity:1;" offset="0.265625"/><stop style="stop-color:#f6f6f6;stop-opacity:1;" offset="0.28125"/><stop style="stop-color:#f5f5f5;stop-opacity:1;" offset="0.296875"/><stop style="stop-color:#f5f5f5;stop-opacity:1;" offset="0.3125"/><stop style="stop-color:#f4f4f4;stop-opacity:1;" offset="0.328125"/><stop style="stop-color:#f4f4f4;stop-opacity:1;" offset="0.34375"/><stop style="stop-color:#f3f3f3;stop-opacity:1;" offset="0.359375"/><stop style="stop-color:#f3f3f3;stop-opacity:1;" offset="0.375"/><stop style="stop-color:#f2f2f2;stop-opacity:1;" offset="0.390625"/><stop style="stop-color:#f1f1f1;stop-opacity:1;" offset="0.40625"/><stop style="stop-color:#f1f1f1;stop-opacity:1;" offset="0.421875"/><stop style="stop-color:#f0f0f0;stop-opacity:1;" offset="0.4375"/><stop style="stop-color:#f0f0f0;stop-opacity:1;" offset="0.453125"/><stop style="stop-color:#efefef;stop-opacity:1;" offset="0.46875"/><stop style="stop-color:#efefef;stop-opacity:1;" offset="0.484375"/><stop style="stop-color:#eeeeee;stop-opacity:1;" offset="0.5"/><stop style="stop-color:#eeeeee;stop-opacity:1;" offset="0.515625"/><stop style="stop-color:#ededed;stop-opacity:1;" offset="0.53125"/><stop style="stop-color:#ededed;stop-opacity:1;" offset="0.546875"/><stop style="stop-color:#ececec;stop-opacity:1;" offset="0.5625"/><stop style="stop-color:#ececec;stop-opacity:1;" offset="0.578125"/><stop style="stop-color:#ebebeb;stop-opacity:1;" offset="0.59375"/><stop style="stop-color:#ebebeb;stop-opacity:1;" offset="0.609375"/><stop style="stop-color:#eaeaea;stop-opacity:1;" offset="0.625"/><stop style="stop-color:#e9e9e9;stop-opacity:1;" offset="0.640625"/><stop style="stop-color:#e9e9e9;stop-opacity:1;" offset="0.65625"/><stop style="stop-color:#e8e8e8;stop-opacity:1;" offset="0.671875"/><stop style="stop-color:#e8e8e8;stop-opacity:1;" offset="0.6875"/><stop style="stop-color:#e7e7e7;stop-opacity:1;" offset="0.703125"/><stop style="stop-color:#e7e7e7;stop-opacity:1;" offset="0.71875"/><stop style="stop-color:#e6e6e6;stop-opacity:1;" offset="0.734375"/><stop style="stop-color:#e6e6e6;stop-opacity:1;" offset="0.75"/><stop style="stop-color:#e5e5e5;stop-opacity:1;" offset="0.765625"/><stop style="stop-color:#e5e5e5;stop-opacity:1;" offset="0.78125"/><stop style="stop-color:#e4e4e4;stop-opacity:1;" offset="0.796875"/><stop style="stop-color:#e4e4e4;stop-opacity:1;" offset="0.8125"/><stop style="stop-color:#e3e3e3;stop-opacity:1;" offset="0.828125"/><stop style="stop-color:#e3e3e3;stop-opacity:1;" offset="0.84375"/><stop style="stop-color:#e2e2e2;stop-opacity:1;" offset="0.859375"/><stop style="stop-color:#e2e2e2;stop-opacity:1;" offset="0.875"/><stop style="stop-color:#e1e1e1;stop-opacity:1;" offset="0.890625"/><stop style="stop-color:#e0e0e0;stop-opacity:1;" offset="0.90625"/><stop style="stop-color:#e0e0e0;stop-opacity:1;" offset="0.921875"/><stop style="stop-color:#dfdfdf;stop-opacity:1;" offset="0.9375"/><stop style="stop-color:#dfdfdf;stop-opacity:1;" offset="0.953125"/><stop style="stop-color:#dedede;stop-opacity:1;" offset="0.96875"/><stop style="stop-color:#dedede;stop-opacity:1;" offset="0.984375"/><stop style="stop-color:#dddddd;stop-opacity:1;" offset="1"/></linearGradient><clipPath id="258830363d"><path d="M 330.003906 16.773438 L 697.503906 16.773438 L 697.503906 104 L 330.003906 104 Z M 330.003906 16.773438 "/></clipPath><clipPath id="8ccdf72f7d"><path d="M 330.007812 67.785156 L 697.503906 67.785156 L 697.503906 321.921875 L 330.007812 321.921875 Z M 330.007812 67.785156 "/></clipPath><clipPath id="5551f69215"><path d="M 103.972656 531.691406 L 476.644531 531.691406 L 476.644531 771.402344 L 103.972656 771.402344 Z M 103.972656 531.691406 "/></clipPath><clipPath id="3b836a2b31"><path d="M 145.222656 531.691406 L 434.816406 531.691406 C 445.757812 531.691406 456.25 536.035156 463.984375 543.773438 C 471.722656 551.507812 476.066406 562 476.066406 572.941406 L 476.066406 730.152344 C 476.066406 741.089844 471.722656 751.582031 463.984375 759.320312 C 456.25 767.054688 445.757812 771.402344 434.816406 771.402344 L 145.222656 771.402344 C 134.28125 771.402344 123.789062 767.054688 116.054688 759.320312 C 108.316406 751.582031 103.972656 741.089844 103.972656 730.152344 L 103.972656 572.941406 C 103.972656 562 108.316406 551.507812 116.054688 543.773438 C 123.789062 536.035156 134.28125 531.691406 145.222656 531.691406 Z M 145.222656 531.691406 "/></clipPath><clipPath id="8b8ec8c045"><path d="M 0.972656 0.691406 L 373 0.691406 L 373 240.402344 L 0.972656 240.402344 Z M 0.972656 0.691406 "/></clipPath><clipPath id="17f9053886"><path d="M 42.222656 0.691406 L 331.816406 0.691406 C 342.757812 0.691406 353.25 5.035156 360.984375 12.773438 C 368.722656 20.507812 373.066406 31 373.066406 41.941406 L 373.066406 199.152344 C 373.066406 210.089844 368.722656 220.582031 360.984375 228.320312 C 353.25 236.054688 342.757812 240.402344 331.816406 240.402344 L 42.222656 240.402344 C 31.28125 240.402344 20.789062 236.054688 13.054688 228.320312 C 5.316406 220.582031 0.972656 210.089844 0.972656 199.152344 L 0.972656 41.941406 C 0.972656 31 5.316406 20.507812 13.054688 12.773438 C 20.789062 5.035156 31.28125 0.691406 42.222656 0.691406 Z M 42.222656 0.691406 "/></clipPath><clipPath id="ec1b8d45ad"><rect x="0" width="374" y="0" height="241"/></clipPath></defs><g id="c4e1b60b99"><path style="fill:none;stroke-width:80;stroke-linecap:butt;stroke-linejoin:miter;stroke:url(#414ba944a1);stroke-miterlimit:4;" d="M 330.174259 613.305743 L 330.174259 653.35262 C 330.174259 666.607829 340.919052 677.352621 354.174261 677.352621 L 597.637814 677.352621 C 610.893023 677.352621 621.637816 666.607829 621.637816 653.35262 L 621.637816 379.540106 C 621.637816 366.284897 610.893023 355.540105 597.637814 355.540105 L 64.002371 355.540105 C 50.747162 355.540105 40.00237 344.795313 40.00237 331.540104 L 40.00237 63.998423 C 40.00237 50.743214 50.747162 39.998422 64.002371 39.998422 L 309.945092 39.998422 " transform="matrix(0.75,0,0,0.75,157.369318,153.973841)"/><g clip-rule="nonzero" clip-path="url(#258830363d)"><path style=" stroke:none;fill-rule:nonzero;fill:#ffffff;fill-opacity:1;" d="M 330.007812 103.480469 L 330.007812 49.855469 C 330.007812 31.585938 344.816406 16.773438 363.089844 16.773438 L 434.164062 16.773438 C 441.167969 16.773438 447.992188 18.996094 453.652344 23.121094 L 484.597656 45.675781 L 664.582031 45.675781 C 682.851562 45.675781 697.664062 60.488281 697.664062 78.761719 L 697.664062 103.480469 L 330.007812 103.480469 "/></g><g clip-rule="nonzero" clip-path="url(#8ccdf72f7d)"><path style=" stroke:none;fill-rule:nonzero;fill:#ffffff;fill-opacity:1;" d="M 664.582031 67.855469 L 363.089844 67.855469 C 344.816406 67.855469 330.007812 82.667969 330.007812 100.941406 L 330.007812 288.839844 C 330.007812 307.113281 344.816406 321.921875 363.089844 321.921875 L 664.582031 321.921875 C 682.851562 321.921875 697.664062 307.113281 697.664062 288.839844 L 697.664062 100.941406 C 697.664062 82.667969 682.851562 67.855469 664.582031 67.855469 "/></g><g clip-rule="nonzero" clip-path="url(#5551f69215)"><g clip-rule="nonzero" clip-path="url(#3b836a2b31)"><g transform="matrix(1,0,0,1,103,531)"><g clip-path="url(#ec1b8d45ad)"><g clip-rule="nonzero" clip-path="url(#8b8ec8c045)"><g clip-rule="nonzero" clip-path="url(#17f9053886)"><path style=" stroke:none;fill-rule:nonzero;fill:#dddddd;fill-opacity:1;" d="M 0.972656 0.691406 L 372.710938 0.691406 L 372.710938 240.402344 L 0.972656 240.402344 Z M 0.972656 0.691406 "/></g></g></g></g></g></g></g></svg>